HIERARCHY
ROOT Hips
{
  OFFSET 0 0 0
  CHANNELS 6 Xposition Yposition Zposition Zrotation Yrotation Xrotation
  JOINT LeftThigh
  {
    OFFSET 8.409438 0 -5.917753
    CHANNELS 3 Zrotation Yrotation Xrotation
    JOINT LeftLeg
    {
      OFFSET 0 0 -42.358652
      CHANNELS 3 Zrotation Yrotation Xrotation
      JOINT LeftFoot
      {
        OFFSET 0 0 -39.357303
        CHANNELS 3 Zrotation Yrotation Xrotation
      }
    }
  }
  JOINT RightThigh
  {
    OFFSET -8.409438 0 -5.917753
    CHANNELS 3 Zrotation Yrotation Xrotation
    JOINT RightLeg
    {
      OFFSET 0 0 -42.358652
      CHANNELS 3 Zrotation Yrotation Xrotation
      JOINT RightFoot
      {
        OFFSET 0 0 -39.357303
        CHANNELS 3 Zrotation Yrotation Xrotation
      }
    }
  }
  JOINT SpineLow
  {
    OFFSET 0 0 4.719101
    CHANNELS 3 Zrotation Yrotation Xrotation
    JOINT SpineMid
    {
      OFFSET 0 0 12.899191
      CHANNELS 3 Zrotation Yrotation Xrotation
      JOINT Chest
      {
        OFFSET 0 0 12.899191
        CHANNELS 3 Zrotation Yrotation Xrotation
        JOINT LeftShoulder
        {
          OFFSET 7.550562 1.41573 9.438202
          CHANNELS 3 Zrotation Yrotation Xrotation
          JOINT LeftArm
          {
            OFFSET 9.155056 0 4.247191
            CHANNELS 3 Zrotation Yrotation Xrotation
            JOINT LeftForearm
            {
              OFFSET 0 0 25.771955
              CHANNELS 3 Zrotation Yrotation Xrotation
              JOINT LeftHand
              {
                OFFSET 0 0 25.197169
                CHANNELS 3 Zrotation Yrotation Xrotation
              }
            }
          }
        }
        JOINT RightShoulder
        {
          OFFSET -7.550562 1.41573 9.438202
          CHANNELS 3 Zrotation Yrotation Xrotation
          JOINT RightArm
          {
            OFFSET -9.155056 0 4.247191
            CHANNELS 3 Zrotation Yrotation Xrotation
            JOINT RightForearm
            {
              OFFSET 0 0 -25.771955
              CHANNELS 3 Zrotation Yrotation Xrotation
              JOINT RightHand
              {
                OFFSET 0 0 -25.197169
                CHANNELS 3 Zrotation Yrotation Xrotation
              }
            }
          }
        }
        JOINT Neck
        {
          OFFSET 0 0 15.101124
          CHANNELS 3 Zrotation Yrotation Xrotation
          JOINT Head
          {
            OFFSET 0 0 11.325843
            CHANNELS 3 Zrotation Yrotation Xrotation
            End Site
            {
              OFFSET 0 0 14.157303
            }
          }
        }
      }
    }
  }
}
MOTION
Frames: 10
Frame Time: 0.0
0.0  89.887642  0.0  6.485475  31.866755  -90.266754  29.361854  -21.824967  8.806678  -4.792435  6.025892  23.394236  -2.665755  -0.660249  -4.654779  -24.626694  7.890108  -43.200245  3.81948  6.196167  54.259055  11.720403  3.376473  1.4345  -0.394312  0.124118  0.974455  -1.072621  0.355077  2.661495  -1.072621  0.355077  2.661495  -9.954572  19.788055  11.880177  117.756335  48.313692  -160.459871  -29.291914  -4.971274  70.005712  79.397797  -2.169037  0.46812  -4.908448  1.791058  12.613666  16.191726  56.38334  -23.540152  -28.756251  -12.651141  -80.145201  74.220161  -10.945833  -5.268116  -26.712349  1.01567  -4.71936  -20.027365  0.970528  -3.502949  
0.0  89.887642  0.0  6.565394  31.295168  -89.887209  29.917171  -21.765289  8.762707  -4.897839  5.98964  22.860249  -2.540076  -0.593124  -4.578796  -24.719015  7.662483  -43.910941  3.533836  6.430716  54.844913  10.689542  3.490096  1.059003  -0.381551  0.199046  0.920901  -1.035201  0.558494  2.514033  -1.035201  0.558494  2.514034  -10.456466  19.390023  11.686121  118.923757  48.958115  -159.424558  -29.938376  -5.003594  71.569148  80.570637  -1.967976  0.151409  -4.9686  1.652556  11.934158  16.548662  56.806503  -22.973188  -28.446811  -13.10241  -80.941682  73.901321  -11.742425  -4.130739  -26.60129  0.771683  -4.652714  -19.946211  0.783323  -3.463667  
0.0  89.887642  0.0  6.681282  30.690537  -89.352034  30.618229  -21.652155  8.695049  -4.919386  5.843111  22.286567  -2.666958  -0.544509  -4.594011  -24.395761  7.481778  -44.654887  3.215638  6.334194  55.405547  10.388127  3.636282  1.025442  -0.350615  0.271459  0.880986  -0.948374  0.754645  2.404191  -0.948374  0.754645  2.404191  -11.100747  18.860509  11.184338  120.727765  50.035906  -157.835311  -30.316686  -4.700934  73.362319  82.113778  -1.558321  -0.052488  -4.774831  1.468607  11.052637  16.075856  57.286634  -22.935225  -28.057824  -13.543737  -81.904119  73.579971  -12.571371  -2.972666  -26.496326  0.472841  -4.714486  -19.869926  0.560548  -3.523203  
0.0  89.887642  0.0  6.738995  29.725823  -88.978856  31.618855  -21.653841  8.806724  -5.040054  5.652683  21.580008  -2.906623  -0.495563  -4.671712  -23.797105  7.291633  -45.270994  3.127966  6.091962  55.838392  10.005065  3.75027  1.097317  -0.285623  0.331739  0.899861  -0.7683  0.917243  2.455866  -0.7683  0.917243  2.455866  -11.870802  18.232735  10.273331  123.406993  51.624866  -155.66107  -30.414488  -4.212401  75.421784  84.099517  -0.737454  0.018762  -4.645226  1.353576  9.857534  15.150872  57.82842  -23.622384  -27.509992  -14.059798  -82.941484  73.30094  -13.247659  -1.994717  -26.271292  0.136436  -4.944407  -19.70392  0.315827  -3.710592  
0.0  89.887642  0.0  6.962646  28.765036  -88.582599  32.362914  -21.534513  9.20854  -4.876037  5.365174  20.874812  -3.063117  -0.477002  -4.709277  -23.157066  7.101585  -45.745374  3.221876  5.798845  56.093805  9.45392  3.929413  1.18901  -0.410407  0.3796  0.980116  -1.106298  1.054001  2.672725  -1.106298  1.054001  2.672725  -11.485092  17.665709  8.782929  126.650797  53.728901  -152.877206  -30.251379  -3.878247  77.686163  86.281007  0.459717  0.454163  -3.35624  1.415579  8.139455  13.630847  58.495321  -24.936203  -26.769656  -14.662025  -84.115421  73.066229  -13.778872  -1.156417  -25.279098  -0.18791  -5.440534  -18.96279  0.084522  -4.096515  
0.0  89.887642  0.0  7.223002  27.71618  -88.225736  32.800927  -21.332034  9.879604  -4.517866  4.985067  20.086512  -3.240856  -0.435789  -4.715118  -22.838201  6.971838  -46.323265  3.660897  5.571795  56.556653  9.101575  3.847441  1.070741  -0.519877  0.433876  1.033333  -1.402339  1.207855  2.815324  -1.402339  1.207855  2.815324  -11.203895  17.013366  7.280261  130.715214  56.270341  -149.342159  -30.068811  -3.932032  80.02658  88.494858  2.050796  1.357119  -2.167879  1.537007  6.576501  11.434383  59.223107  -27.161097  -25.934616  -15.194677  -85.33643  72.84058  -14.216686  -0.393508  -24.263382  -0.396926  -5.823724  -18.203231  -0.066391  -4.391782  
0.0  89.887642  0.0  7.477916  26.677919  -87.953851  32.726042  -21.037757  10.804603  -3.821731  4.566637  19.322597  -3.462118  -0.41405  -4.764813  -22.414129  6.677851  -46.587649  3.754416  5.862891  56.734281  9.354019  3.948796  1.065792  -0.580379  0.474822  1.073394  -1.565169  1.323257  2.922786  -1.565169  1.323257  2.922786  -11.160484  16.31326  5.865832  135.676106  59.23255  -144.713879  -29.997808  -4.405394  82.339834  90.702047  4.03124  2.698509  -1.536533  1.699436  4.994685  8.881319  60.071982  -30.157973  -25.145498  -15.573727  -86.494721  72.64447  -14.60578  0.358295  -23.388436  -0.498149  -6.101648  -17.548284  -0.140151  -4.603304  
0.0  89.887642  0.0  7.728812  25.652513  -87.876524  32.106799  -20.62772  12.007709  -3.102257  4.189137  18.633969  -3.318896  -0.45698  -4.838655  -22.014727  6.401592  -46.440708  3.761869  6.359542  56.671047  9.628559  4.061001  1.061452  -0.641015  0.512323  1.116352  -1.728321  1.429514  3.038047  -1.728321  1.429515  3.038046  -11.372551  15.531352  4.354015  142.317201  62.286664  -138.627429  -30.014847  -5.185338  84.51135  92.746807  6.225972  4.278682  -0.982796  1.823033  3.494215  5.757696  61.089189  -34.060398  -24.606077  -15.732016  -87.520858  72.498768  -14.964571  1.156717  -22.505193  -0.495586  -6.272511  -16.886005  -0.140755  -4.730245  
0.0  89.887642  0.0  7.91269  24.564962  -87.929563  31.199521  -20.084855  13.350996  -2.111435  3.649635  18.077936  -3.032789  -0.57506  -4.874401  -21.427302  6.116392  -45.850618  3.920986  6.664206  56.233694  9.940772  4.163297  1.179363  -0.713496  0.532519  1.139371  -1.924985  1.488684  3.098814  -1.924985  1.488684  3.098814  -11.264897  14.635887  2.986332  150.704507  65.121433  -130.661309  -30.239024  -5.983411  86.471769  94.661757  8.544474  5.912048  -0.485656  1.915847  2.037769  2.444737  62.297666  -38.636238  -24.481139  -15.582668  -88.317628  72.516726  -15.356397  2.019819  -21.499101  -0.362152  -6.326504  -16.13009  -0.048963  -4.764621  
0.0  89.887642  0.0  8.010158  23.395009  -88.13698  30.018376  -19.438988  14.848205  -0.842677  2.836344  17.534802  -2.717934  -0.638416  -4.785223  -20.591325  5.872178  -44.945936  4.199392  6.71503  55.632234  10.344907  4.126263  1.290617  -0.774298  0.532322  1.159478  -2.090713  1.491612  3.152392  -2.090713  1.491612  3.152392  -11.376761  13.632603  1.426212  161.430871  67.434538  -120.698659  -30.624852  -6.356099  87.971701  96.392487  10.775343  7.249651  -0.023912  2.011234  0.657224  -1.390094  63.583274  -44.076824  -24.802732  -15.051217  -88.854637  72.671485  -15.748939  2.79509  -20.492449  -0.090353  -6.35008  -15.372263  0.145526  -4.77197  
